<mxfile host="app.diagrams.net" agent="Mozilla/5.0 (Windows NT 10.0; Win64; x64) AppleWebKit/537.36 (KHTML, like Gecko) Chrome/129.0.0.0 Safari/537.36" version="24.8.6">
  <diagram id="C5RBs43oDa-KdzZeNtuy" name="Page-1">
    <mxGraphModel dx="836" dy="443" grid="1" gridSize="10" guides="1" tooltips="1" connect="1" arrows="1" fold="1" page="1" pageScale="1" pageWidth="827" pageHeight="1169" math="0" shadow="0">
      <root>
        <mxCell id="WIyWlLk6GJQsqaUBKTNV-0" />
        <mxCell id="WIyWlLk6GJQsqaUBKTNV-1" parent="WIyWlLk6GJQsqaUBKTNV-0" />
        <mxCell id="_6WXv6Iw18PupBfDhg09-2" value="" style="edgeStyle=orthogonalEdgeStyle;rounded=0;orthogonalLoop=1;jettySize=auto;html=1;" edge="1" parent="WIyWlLk6GJQsqaUBKTNV-1" source="_6WXv6Iw18PupBfDhg09-0" target="_6WXv6Iw18PupBfDhg09-1">
          <mxGeometry relative="1" as="geometry" />
        </mxCell>
        <mxCell id="_6WXv6Iw18PupBfDhg09-0" value="bắt đầu" style="ellipse;whiteSpace=wrap;html=1;" vertex="1" parent="WIyWlLk6GJQsqaUBKTNV-1">
          <mxGeometry x="30" y="80" width="120" height="80" as="geometry" />
        </mxCell>
        <mxCell id="_6WXv6Iw18PupBfDhg09-4" value="" style="edgeStyle=orthogonalEdgeStyle;rounded=0;orthogonalLoop=1;jettySize=auto;html=1;" edge="1" parent="WIyWlLk6GJQsqaUBKTNV-1" source="_6WXv6Iw18PupBfDhg09-1" target="_6WXv6Iw18PupBfDhg09-3">
          <mxGeometry relative="1" as="geometry" />
        </mxCell>
        <mxCell id="_6WXv6Iw18PupBfDhg09-1" value="nhập điểm n" style="shape=parallelogram;perimeter=parallelogramPerimeter;whiteSpace=wrap;html=1;fixedSize=1;" vertex="1" parent="WIyWlLk6GJQsqaUBKTNV-1">
          <mxGeometry x="30" y="220" width="120" height="60" as="geometry" />
        </mxCell>
        <mxCell id="_6WXv6Iw18PupBfDhg09-6" value="" style="edgeStyle=orthogonalEdgeStyle;rounded=0;orthogonalLoop=1;jettySize=auto;html=1;" edge="1" parent="WIyWlLk6GJQsqaUBKTNV-1" source="_6WXv6Iw18PupBfDhg09-3" target="_6WXv6Iw18PupBfDhg09-5">
          <mxGeometry relative="1" as="geometry" />
        </mxCell>
        <mxCell id="_6WXv6Iw18PupBfDhg09-14" value="" style="edgeStyle=orthogonalEdgeStyle;rounded=0;orthogonalLoop=1;jettySize=auto;html=1;" edge="1" parent="WIyWlLk6GJQsqaUBKTNV-1" source="_6WXv6Iw18PupBfDhg09-3" target="_6WXv6Iw18PupBfDhg09-13">
          <mxGeometry relative="1" as="geometry" />
        </mxCell>
        <mxCell id="_6WXv6Iw18PupBfDhg09-3" value="n&amp;lt;4" style="rhombus;whiteSpace=wrap;html=1;" vertex="1" parent="WIyWlLk6GJQsqaUBKTNV-1">
          <mxGeometry x="50" y="350" width="80" height="80" as="geometry" />
        </mxCell>
        <mxCell id="_6WXv6Iw18PupBfDhg09-8" value="" style="edgeStyle=orthogonalEdgeStyle;rounded=0;orthogonalLoop=1;jettySize=auto;html=1;" edge="1" parent="WIyWlLk6GJQsqaUBKTNV-1" source="_6WXv6Iw18PupBfDhg09-5" target="_6WXv6Iw18PupBfDhg09-7">
          <mxGeometry relative="1" as="geometry" />
        </mxCell>
        <mxCell id="_6WXv6Iw18PupBfDhg09-17" value="" style="edgeStyle=orthogonalEdgeStyle;rounded=0;orthogonalLoop=1;jettySize=auto;html=1;" edge="1" parent="WIyWlLk6GJQsqaUBKTNV-1" source="_6WXv6Iw18PupBfDhg09-5" target="_6WXv6Iw18PupBfDhg09-16">
          <mxGeometry relative="1" as="geometry" />
        </mxCell>
        <mxCell id="_6WXv6Iw18PupBfDhg09-5" value="4 &amp;lt;= n &amp;lt;= 6" style="rhombus;whiteSpace=wrap;html=1;" vertex="1" parent="WIyWlLk6GJQsqaUBKTNV-1">
          <mxGeometry x="210" y="350" width="80" height="80" as="geometry" />
        </mxCell>
        <mxCell id="_6WXv6Iw18PupBfDhg09-10" value="" style="edgeStyle=orthogonalEdgeStyle;rounded=0;orthogonalLoop=1;jettySize=auto;html=1;" edge="1" parent="WIyWlLk6GJQsqaUBKTNV-1" source="_6WXv6Iw18PupBfDhg09-7" target="_6WXv6Iw18PupBfDhg09-9">
          <mxGeometry relative="1" as="geometry" />
        </mxCell>
        <mxCell id="_6WXv6Iw18PupBfDhg09-19" value="" style="edgeStyle=orthogonalEdgeStyle;rounded=0;orthogonalLoop=1;jettySize=auto;html=1;" edge="1" parent="WIyWlLk6GJQsqaUBKTNV-1" source="_6WXv6Iw18PupBfDhg09-7" target="_6WXv6Iw18PupBfDhg09-18">
          <mxGeometry relative="1" as="geometry" />
        </mxCell>
        <mxCell id="_6WXv6Iw18PupBfDhg09-7" value="6 &amp;lt; n &amp;lt;= 8" style="rhombus;whiteSpace=wrap;html=1;" vertex="1" parent="WIyWlLk6GJQsqaUBKTNV-1">
          <mxGeometry x="370" y="350" width="80" height="80" as="geometry" />
        </mxCell>
        <mxCell id="_6WXv6Iw18PupBfDhg09-12" value="" style="edgeStyle=orthogonalEdgeStyle;rounded=0;orthogonalLoop=1;jettySize=auto;html=1;" edge="1" parent="WIyWlLk6GJQsqaUBKTNV-1" source="_6WXv6Iw18PupBfDhg09-9" target="_6WXv6Iw18PupBfDhg09-11">
          <mxGeometry relative="1" as="geometry" />
        </mxCell>
        <mxCell id="_6WXv6Iw18PupBfDhg09-21" value="" style="edgeStyle=orthogonalEdgeStyle;rounded=0;orthogonalLoop=1;jettySize=auto;html=1;" edge="1" parent="WIyWlLk6GJQsqaUBKTNV-1" source="_6WXv6Iw18PupBfDhg09-9" target="_6WXv6Iw18PupBfDhg09-20">
          <mxGeometry relative="1" as="geometry" />
        </mxCell>
        <mxCell id="_6WXv6Iw18PupBfDhg09-9" value="8 &amp;lt; n &amp;lt;= 9" style="rhombus;whiteSpace=wrap;html=1;" vertex="1" parent="WIyWlLk6GJQsqaUBKTNV-1">
          <mxGeometry x="530" y="350" width="80" height="80" as="geometry" />
        </mxCell>
        <mxCell id="_6WXv6Iw18PupBfDhg09-23" value="" style="edgeStyle=orthogonalEdgeStyle;rounded=0;orthogonalLoop=1;jettySize=auto;html=1;" edge="1" parent="WIyWlLk6GJQsqaUBKTNV-1" source="_6WXv6Iw18PupBfDhg09-11" target="_6WXv6Iw18PupBfDhg09-22">
          <mxGeometry relative="1" as="geometry" />
        </mxCell>
        <mxCell id="_6WXv6Iw18PupBfDhg09-11" value="9 &amp;lt; n &amp;lt;= 10" style="rhombus;whiteSpace=wrap;html=1;" vertex="1" parent="WIyWlLk6GJQsqaUBKTNV-1">
          <mxGeometry x="690" y="350" width="80" height="80" as="geometry" />
        </mxCell>
        <mxCell id="_6WXv6Iw18PupBfDhg09-25" value="" style="edgeStyle=orthogonalEdgeStyle;rounded=0;orthogonalLoop=1;jettySize=auto;html=1;" edge="1" parent="WIyWlLk6GJQsqaUBKTNV-1" source="_6WXv6Iw18PupBfDhg09-13" target="_6WXv6Iw18PupBfDhg09-24">
          <mxGeometry relative="1" as="geometry" />
        </mxCell>
        <mxCell id="_6WXv6Iw18PupBfDhg09-13" value="in: không đạt" style="shape=parallelogram;perimeter=parallelogramPerimeter;whiteSpace=wrap;html=1;fixedSize=1;" vertex="1" parent="WIyWlLk6GJQsqaUBKTNV-1">
          <mxGeometry x="30" y="520" width="120" height="60" as="geometry" />
        </mxCell>
        <mxCell id="_6WXv6Iw18PupBfDhg09-26" style="edgeStyle=orthogonalEdgeStyle;rounded=0;orthogonalLoop=1;jettySize=auto;html=1;exitX=0.5;exitY=1;exitDx=0;exitDy=0;entryX=1;entryY=0.5;entryDx=0;entryDy=0;" edge="1" parent="WIyWlLk6GJQsqaUBKTNV-1" source="_6WXv6Iw18PupBfDhg09-16" target="_6WXv6Iw18PupBfDhg09-24">
          <mxGeometry relative="1" as="geometry" />
        </mxCell>
        <mxCell id="_6WXv6Iw18PupBfDhg09-16" value="in: trung bình" style="shape=parallelogram;perimeter=parallelogramPerimeter;whiteSpace=wrap;html=1;fixedSize=1;" vertex="1" parent="WIyWlLk6GJQsqaUBKTNV-1">
          <mxGeometry x="190" y="520" width="120" height="60" as="geometry" />
        </mxCell>
        <mxCell id="_6WXv6Iw18PupBfDhg09-30" style="edgeStyle=orthogonalEdgeStyle;rounded=0;orthogonalLoop=1;jettySize=auto;html=1;exitX=0.5;exitY=1;exitDx=0;exitDy=0;endArrow=none;endFill=0;" edge="1" parent="WIyWlLk6GJQsqaUBKTNV-1" source="_6WXv6Iw18PupBfDhg09-18">
          <mxGeometry relative="1" as="geometry">
            <mxPoint x="410" y="720" as="targetPoint" />
          </mxGeometry>
        </mxCell>
        <mxCell id="_6WXv6Iw18PupBfDhg09-18" value="in: khá" style="shape=parallelogram;perimeter=parallelogramPerimeter;whiteSpace=wrap;html=1;fixedSize=1;" vertex="1" parent="WIyWlLk6GJQsqaUBKTNV-1">
          <mxGeometry x="350" y="520" width="120" height="60" as="geometry" />
        </mxCell>
        <mxCell id="_6WXv6Iw18PupBfDhg09-29" style="edgeStyle=orthogonalEdgeStyle;rounded=0;orthogonalLoop=1;jettySize=auto;html=1;exitX=0.5;exitY=1;exitDx=0;exitDy=0;endArrow=none;endFill=0;" edge="1" parent="WIyWlLk6GJQsqaUBKTNV-1" source="_6WXv6Iw18PupBfDhg09-20">
          <mxGeometry relative="1" as="geometry">
            <mxPoint x="570" y="720" as="targetPoint" />
          </mxGeometry>
        </mxCell>
        <mxCell id="_6WXv6Iw18PupBfDhg09-20" value="in: giỏi" style="shape=parallelogram;perimeter=parallelogramPerimeter;whiteSpace=wrap;html=1;fixedSize=1;" vertex="1" parent="WIyWlLk6GJQsqaUBKTNV-1">
          <mxGeometry x="510" y="520" width="120" height="60" as="geometry" />
        </mxCell>
        <mxCell id="_6WXv6Iw18PupBfDhg09-28" style="edgeStyle=orthogonalEdgeStyle;rounded=0;orthogonalLoop=1;jettySize=auto;html=1;entryX=1;entryY=0.5;entryDx=0;entryDy=0;endArrow=none;endFill=0;" edge="1" parent="WIyWlLk6GJQsqaUBKTNV-1">
          <mxGeometry relative="1" as="geometry">
            <mxPoint x="160" y="720" as="targetPoint" />
            <mxPoint x="740" y="580" as="sourcePoint" />
            <Array as="points">
              <mxPoint x="730" y="580" />
              <mxPoint x="730" y="720" />
            </Array>
          </mxGeometry>
        </mxCell>
        <mxCell id="_6WXv6Iw18PupBfDhg09-22" value="in: xuất sắc" style="shape=parallelogram;perimeter=parallelogramPerimeter;whiteSpace=wrap;html=1;fixedSize=1;" vertex="1" parent="WIyWlLk6GJQsqaUBKTNV-1">
          <mxGeometry x="670" y="520" width="120" height="60" as="geometry" />
        </mxCell>
        <mxCell id="_6WXv6Iw18PupBfDhg09-24" value="kết thúc" style="ellipse;whiteSpace=wrap;html=1;" vertex="1" parent="WIyWlLk6GJQsqaUBKTNV-1">
          <mxGeometry x="30" y="680" width="120" height="80" as="geometry" />
        </mxCell>
      </root>
    </mxGraphModel>
  </diagram>
</mxfile>
